<?xml version="1.0" ?><svg id="Icons" style="enable-background:new 0 0 32 32;" version="1.1" viewBox="0 0 32 32"
	xml:space="preserve" xmlns="http://www.w3.org/2000/svg" xmlns:xlink="http://www.w3.org/1999/xlink">
	<style type="text/css">
		.dice-svg-style {
			fill: none;
			stroke: #e5baec;
			stroke-width: 2;
			stroke-linecap: round;
			stroke-linejoin: round;
			stroke-miterlimit: 10;
		}
	</style>
	<path class="dice-svg-style" d="M17,29H7c-2.2,0-4-1.8-4-4V15c0-2.2,1.8-4,4-4h10c2.2,0,4,1.8,4,4v10C21,27.2,19.2,29,17,29z" />
	<circle class="dice-svg-style" cx="12" cy="20" r="1" />
	<circle class="dice-svg-style" cx="8" cy="16" r="1" />
	<circle class="dice-svg-style" cx="16" cy="24" r="1" />
	<circle class="dice-svg-style" cx="8" cy="24" r="1" />
	<path class="dice-svg-style" d="M11,11V7c0-2.2,1.8-4,4-4h10c2.2,0,4,1.8,4,4v10c0,2.2-1.8,4-4,4h-4" />
	<circle class="dice-svg-style" cx="24" cy="8" r="1" />
	<circle class="dice-svg-style" cx="16" cy="16" r="1" />
</svg>