<svg xmlns="http://www.w3.org/2000/svg" width="40" height="40" viewBox="0 0 40 40">
    <defs>
        <linearGradient id="r9lhjm183a" x2="1" y1=".145" y2=".901" gradientUnits="objectBoundingBox">
            <stop offset="0" stop-color="#50ffc5"/>
            <stop offset="1" stop-color="#19b9c3"/>
        </linearGradient>
    </defs>
    <g transform="translate(-653 -231)">
        <circle cx="15" cy="15" r="15" fill="#fff" transform="translate(658 236)"/>
        <path fill="url(#r9lhjm183a)" d="M23.375 3.375a20 20 0 1 0 20 20 20 20 0 0 0-20-20zm10.24 14.471L20.76 30.76h-.01a1.737 1.737 0 0 1-1.115.529 1.683 1.683 0 0 1-1.125-.548l-5.385-5.385a.383.383 0 0 1 0-.548l1.712-1.708a.372.372 0 0 1 .538 0l4.269 4.269 11.731-11.821a.38.38 0 0 1 .269-.115.349.349 0 0 1 .269.115l1.683 1.74a.379.379 0 0 1 .019.558z" transform="translate(649.625 227.625)"/>
    </g>
</svg>
